<svg width="22" height="23" viewBox="0 0 22 23" fill="none" xmlns="http://www.w3.org/2000/svg">
<path fill-rule="evenodd" clip-rule="evenodd" d="M6.43054 12.8616C6.73058 12.6948 6.98878 12.462 7.18563 12.1808C7.38248 11.8995 7.51284 11.5772 7.56681 11.2381C7.59483 10.8432 7.50086 10.4493 7.29763 10.1095C7.0944 9.7698 6.79171 9.50071 6.43054 9.33869L0.830423 6.43268C0.591331 6.32067 0.396465 6.13202 0.276788 5.89664C0.157111 5.66127 0.11945 5.39267 0.169793 5.13346C0.220137 4.87424 0.35562 4.63927 0.554696 4.46583C0.753772 4.29238 1.00504 4.19039 1.26867 4.17606H3.79278L7.68853 9.22505C8.18477 9.80252 8.43534 10.5513 8.38656 11.3112C8.31247 11.9594 8.07198 12.5774 7.68853 13.1051L3.79278 18.3327H1.30924C-0.0948519 18.3327 -0.208453 16.5794 0.870996 15.9706L6.43054 12.8616Z" fill="#262642"/>
<path fill-rule="evenodd" clip-rule="evenodd" d="M9.02775 13.0808L5.52155 19.5747C4.81545 20.8734 5.12387 22.0099 6.80392 22.0099H9.466L10.3426 12.1554C10.3426 11.9119 10.4075 11.5872 10.4075 11.4573C10.4074 11.0587 10.3858 10.6604 10.3426 10.2641L9.466 0.523248H6.90943C5.22127 0.523248 4.86418 1.65156 5.44854 2.72305L9.10888 9.46045C9.44646 10.0739 9.61722 10.7653 9.60401 11.4654C9.58031 12.0499 9.37931 12.6133 9.02775 13.0808Z" fill="#262642"/>
<path fill-rule="evenodd" clip-rule="evenodd" d="M12.6881 9.39551L16.2024 2.90163C16.9004 1.59474 16.7543 0.466427 15.0824 0.466427H12.2742L11.3977 10.329C11.3977 10.5725 11.3328 10.8972 11.3328 11.019C11.3332 11.4203 11.3548 11.8213 11.3977 12.2204L12.2742 21.9612H14.8389C16.5189 21.9612 16.8761 20.8329 16.2917 19.7614L12.6719 13.0727C12.3197 12.4456 12.1352 11.7382 12.1362 11.019C12.1738 10.4386 12.3642 9.87848 12.6881 9.39551Z" fill="#262642"/>
<path fill-rule="evenodd" clip-rule="evenodd" d="M15.2691 9.56598C14.9667 9.72983 14.7066 9.96183 14.5094 10.2436C14.3121 10.5254 14.1832 10.8492 14.1328 11.1894C14.111 11.5801 14.2079 11.9683 14.4107 12.3029C14.6135 12.6376 14.9127 12.9031 15.2691 13.0646L20.9098 16.1004C21.1606 16.2041 21.3679 16.3913 21.4965 16.6303C21.6252 16.8693 21.6673 17.1454 21.6157 17.4119C21.5641 17.6784 21.4221 17.9188 21.2136 18.0926C21.0051 18.2663 20.7429 18.3626 20.4715 18.3652H17.9555L14.0192 13.2513C13.5883 12.7291 13.3453 12.0773 13.3293 11.4005C13.3293 11.3112 13.3293 11.2219 13.3293 11.1245C13.4027 10.4836 13.6434 9.87334 14.0273 9.35492L17.9231 4.21664H20.3904C21.7945 4.21664 21.9162 5.93752 20.8286 6.53009L15.2691 9.56598Z" fill="#262642"/>
</svg>
